<?xml version="1.0" encoding="UTF-8"?>
<svg id="Layer_2" data-name="Layer 2" xmlns="http://www.w3.org/2000/svg" viewBox="0 0 480.04 480.04">
  <g id="Layer_1-2" data-name="Layer 1">
    <g>
      <path d="M214.46,325.43c-.68-.69-2.38-1.37-5.12-1.37h-12.97c-2.73,0-4.44,0-5.13,1.37-.68.69-1.36,2.38-1.36,5.12v91.15c0,2.73,0,4.44,1.36,5.13.69.68,2.73,1.36,5.13,1.36h12.97c2.73,0,4.44,0,5.12-1.36.69-.69,1.37-2.73,1.37-5.13v-91.15c0-2.73,0-4.43-1.37-5.12Z"/>
      <path d="M231.2,264.22h10.92c2.38,0,4.09-.69,4.78-1.37.69-1.02,1.02-2.38,1.02-4.43v-81.93c0-2.05-.34-3.76-1.02-4.44-1.02-1.02-2.4-1.02-4.78-1.02h-10.92c-2.4,0-4.1.35-4.78,1.02-1.37.69-1.37,2.4-1.37,4.44v81.93c0,2.05.69,3.76,1.37,4.43,1.02,1.37,2.38,1.37,4.78,1.37Z"/>
      <path d="M319.27,264.22h10.92c2.4,0,4.09-.69,4.78-1.37.69-1.02,1.02-2.38,1.02-4.43v-81.93c0-2.05-.34-3.76-1.02-4.44-1.02-1.02-2.38-1.02-4.78-1.02h-10.92c-2.4,0-4.09.35-4.78,1.02-1.02.69-1.37,2.4-1.37,4.44v81.93c0,2.05.69,3.76,1.37,4.43,1.02,1.37,2.38,1.37,4.78,1.37Z"/>
      <path d="M449.31,0H138.21c-8.15,0-15.97,3.24-21.73,9L9,116.48c-5.76,5.76-9,13.58-9,21.73v311.1c0,16.97,13.76,30.73,30.73,30.73h311.1c8.15,0,15.97-3.24,21.73-9l107.48-107.48c5.76-5.76,9-13.58,9-21.73V30.73c0-16.97-13.76-30.73-30.73-30.73ZM289.57,173.07c0-6.49,2.05-11.61,5.47-15.03,3.76-3.76,9.21-5.47,17.06-5.47h24.92c7.85,0,13.65,2.05,17.07,5.47,3.41,3.76,5.12,8.54,5.12,15.03v88.41c0,6.49-1.71,11.61-5.12,15.02-1.37,1.37-2.73,2.73-4.78,3.42h-.35l7.86,10.25h-25.61l-5.8-8.2h-13.32c-7.85,0-13.65-2.05-17.06-5.47-3.76-3.75-5.47-8.53-5.47-15.02v-88.41ZM201.83,173.41c0-6.49,2.05-11.61,5.47-15.03,3.76-3.76,9.21-5.46,17.07-5.46h24.91c7.85,0,13.65,2.05,17.07,5.46v-.34c3.42,3.76,5.12,8.54,5.12,15.03v88.75c0,6.49-1.7,11.27-5.12,15.03-3.42,3.76-9.22,5.46-17.07,5.46h-24.91c-7.86,0-13.32-1.7-17.07-5.46-3.76-3.76-5.47-8.54-5.47-15.03v-88.41ZM128.44,152.92h62.81v18.09h-38.92v39.26h31.75v17.07h-31.75v54.62h-23.9v-129.04ZM90.21,324.4h-.34v-.34h-35.85v45.4h27.65v12.29h-27.65v58.72h-14.34v-128.36h50.52v12.29ZM109.33,261.82c0,6.49-1.71,11.61-5.13,15.03-3.41,3.76-9.21,5.46-17.06,5.46h-24.92c-7.85,0-13.32-1.7-17.07-5.46-3.76-3.76-5.46-8.54-5.46-15.03v-88.41c0-6.49,2.05-11.61,5.46-15.03,3.76-3.76,9.22-5.46,17.07-5.46h24.92c7.85,0,13.65,2.05,17.06,5.46v-.34c3.42,3.76,5.13,8.54,5.13,15.03v88.75ZM159.85,440.47h-43.7v-128.36h14.34v116.07h29.36v12.29ZM229.49,424.09c0,5.46-1.37,9.56-4.09,12.63-2.73,2.73-6.83,4.09-12.29,4.09h-21.17c-5.47,0-9.9-1.36-12.63-4.09-2.73-2.73-4.09-6.83-4.09-12.63v-95.93c0-5.47,1.36-9.56,4.09-12.29,2.73-2.73,6.83-4.09,12.63-4.09h21.17c5.47,0,9.56,1.36,12.29,4.09,2.72,2.73,4.09,6.83,4.09,12.29v95.93ZM340.78,439.79h-21.85l-14.68-101.73-14.34,101.73h-21.85l-19.12-128.36h14.34l15.7,118.8h1.02l16.39-118.8h17.07l16.39,118.8,15.7-118.8h14.34l-19.12,128.36Z"/>
      <path d="M79.96,171.01h-10.92c-2.38,0-4.09.35-4.78,1.02-1.36.69-1.36,2.4-1.36,4.44v81.93c0,2.05.68,3.76,1.36,4.43,1.02,1.37,2.4,1.37,4.78,1.37h10.92c2.4,0,4.1-.69,4.78-1.37,1.02-1.02,1.02-2.38,1.02-4.43v-81.93c0-2.05-.34-3.76-1.02-4.44-1.02-1.02-2.38-1.02-4.78-1.02Z"/>
    </g>
  </g>
</svg>