<svg width="205" height="81" viewBox="0 0 205 81" fill="none" xmlns="http://www.w3.org/2000/svg">
<path d="M18.905 20.244C18.2172 19.5576 18.2172 18.4523 18.905 17.7775L33.7213 2.99007C34.8287 1.88479 34.0477 0.0116345 32.4856 0.0116345H19.0799C18.6136 0.0116345 18.1706 0.197787 17.8442 0.511918C14.8716 3.45545 0.603258 17.5565 0.603258 17.5565C-0.201086 18.3592 -0.201086 19.6507 0.603258 20.4535C0.603258 20.4535 14.9183 34.6127 17.8442 37.5096C18.1706 37.8354 18.6136 38.0099 19.0799 38.0099H32.4856C34.0477 38.0099 34.8287 36.1251 33.7213 35.0315L18.905 20.244Z" fill="black"/>
<path d="M62.4212 17.5565L45.4367 0.604994C44.6324 -0.197787 43.3384 -0.197787 42.5341 0.604994L25.5496 17.5565C24.7452 18.3593 24.7452 19.6507 25.5496 20.4535L42.5341 37.4049C43.3384 38.2077 44.6324 38.2077 45.4367 37.4049L62.4212 20.4535C63.2255 19.6507 63.2255 18.3593 62.4212 17.5565Z" fill="black"/>
<path d="M92.147 1.55902C91.1211 0.523553 89.4542 0 87.1344 0H79.8137C77.5289 0 75.8736 0.523553 74.8361 1.55902C73.7986 2.59449 73.274 4.04881 73.274 5.9336V31.8669C73.274 33.7401 73.7986 35.206 74.8361 36.2415C75.8736 37.277 77.5406 37.8005 79.8137 37.8005H87.1344C89.4542 37.8005 91.1211 37.277 92.147 36.2415C93.1728 35.206 93.6741 33.7401 93.6741 31.8669V5.9336C93.6741 4.06044 93.1612 2.59449 92.147 1.55902ZM86.773 30.9129C86.773 31.5062 86.6565 31.9367 86.4466 32.1694C86.2251 32.4137 85.7705 32.5301 85.0944 32.5301H81.912C81.2359 32.5301 80.7696 32.4137 80.5364 32.1694C80.3033 31.9251 80.1751 31.5062 80.1751 30.9129V6.88763C80.1751 6.24773 80.2916 5.81725 80.5364 5.5962C80.7812 5.37514 81.2359 5.27043 81.912 5.27043H85.0944C85.7705 5.27043 86.2251 5.38678 86.4466 5.5962C86.6681 5.81725 86.773 6.24773 86.773 6.88763V30.9129Z" fill="black"/>
<path d="M99.2578 0V37.8005H106.217V21.8031H115.52V16.777H106.217V5.27043H117.618V0H99.2578Z" fill="black"/>
<path d="M139.673 1.55902C138.647 0.523553 136.98 0 134.661 0H127.34C125.055 0 123.4 0.523553 122.362 1.55902C121.325 2.59449 120.8 4.04881 120.8 5.9336V31.8669C120.8 33.7401 121.325 35.206 122.362 36.2415C123.4 37.277 125.067 37.8005 127.34 37.8005H134.661C136.98 37.8005 138.647 37.277 139.673 36.2415C140.699 35.206 141.2 33.7401 141.2 31.8669V5.9336C141.2 4.06044 140.687 2.59449 139.673 1.55902ZM134.311 30.9129C134.311 31.5062 134.194 31.9367 133.985 32.1694C133.763 32.4137 133.308 32.5301 132.632 32.5301H129.45C128.774 32.5301 128.308 32.4137 128.074 32.1694C127.841 31.9251 127.713 31.5062 127.713 30.9129V6.88763C127.713 6.24773 127.83 5.81725 128.074 5.5962C128.319 5.37514 128.774 5.27043 129.45 5.27043H132.632C133.308 5.27043 133.763 5.38678 133.985 5.5962C134.206 5.81725 134.311 6.24773 134.311 6.88763V30.9129Z" fill="black"/>
<path d="M163.99 37.1955C164.561 36.9512 165.039 36.6371 165.424 36.2415C166.45 35.206 166.951 33.7401 166.951 31.8669V5.9336C166.951 4.06044 166.438 2.59449 165.424 1.55902C164.398 0.523553 162.731 0 160.411 0H153.091C150.806 0 149.151 0.523553 148.113 1.55902C147.076 2.59449 146.551 4.04881 146.551 5.9336V31.8669C146.551 33.7401 147.076 35.206 148.113 36.2415C149.151 37.277 150.817 37.8005 153.091 37.8005H156.984L158.7 40.1978H166.242L163.99 37.1955ZM160.05 30.9129C160.05 31.5062 159.933 31.9367 159.724 32.1694C159.502 32.4137 159.047 32.5301 158.371 32.5301H155.189C154.513 32.5301 154.047 32.4137 153.813 32.1694C153.58 31.9251 153.452 31.5062 153.452 30.9129V6.88763C153.452 6.24773 153.569 5.81725 153.813 5.5962C154.058 5.37514 154.513 5.27043 155.189 5.27043H158.371C159.047 5.27043 159.502 5.38678 159.724 5.5962C159.945 5.81725 160.05 6.24773 160.05 6.88763V30.9129Z" fill="black"/>
<path d="M35.4349 60.5349C35.4349 60.5349 21.1665 46.4339 18.1939 43.4903C17.8675 43.1646 17.4245 42.9901 16.9583 42.9901H3.55252C1.99046 42.9901 1.20943 44.8749 2.31686 45.9685L17.1331 60.756C17.8209 61.4424 17.8209 62.5477 17.1331 63.2225L2.31686 78.0099C1.20943 79.1152 1.99046 80.9884 3.55252 80.9884H16.9583C17.4245 80.9884 17.8675 80.8022 18.1939 80.4881C21.1199 77.5911 35.4349 63.4319 35.4349 63.4319C36.2392 62.6291 36.2392 61.3377 35.4349 60.5349Z" fill="black"/>
<path d="M60.7309 45.6893C61.7684 44.7236 61.0806 42.9901 59.6585 42.9901H27.6829C26.2607 42.9901 25.5729 44.7236 26.6104 45.6893C31.8561 50.6107 41.9862 60.5465 41.9862 60.5465C42.7905 61.3493 42.7905 62.6408 41.9862 63.4435C41.9862 63.4435 31.8561 73.3678 26.6104 78.3008C25.5729 79.2665 26.2607 81 27.6829 81H59.6585C61.0806 81 61.7684 79.2665 60.7309 78.3008C55.4852 73.3794 45.3551 63.4435 45.3551 63.4435C44.5508 62.6408 44.5508 61.3493 45.3551 60.5465C45.3551 60.5465 55.4852 50.6223 60.7309 45.6893Z" fill="black"/>
<path d="M86.6565 59.2086H81.912C81.2359 59.2086 80.7696 59.0922 80.5364 58.8479C80.3033 58.6036 80.1751 58.1847 80.1751 57.5914V49.9824C80.1751 49.3425 80.2916 48.912 80.5364 48.691C80.7812 48.4699 81.2359 48.3652 81.912 48.3652H84.1968C84.8729 48.3652 85.3275 48.4816 85.549 48.691C85.7705 48.912 85.8754 49.3425 85.8754 49.9824V54.2988H92.8347V49.0284C92.8347 47.1552 92.3218 45.7009 91.3077 44.6538C90.2818 43.6183 88.6382 43.0948 86.3534 43.0948H79.7554C77.4356 43.0948 75.7687 43.6183 74.7778 44.6538C73.7753 45.6893 73.274 47.1552 73.274 49.0284V58.3127C73.274 60.1859 73.7403 61.6634 74.6845 62.7106C75.6288 63.7693 77.2142 64.2928 79.4523 64.2928H84.3134C84.9545 64.2928 85.3975 64.3976 85.6306 64.6186C85.8754 64.8397 85.992 65.2701 85.992 65.91V73.996C85.992 74.5894 85.8754 75.0199 85.6306 75.2526C85.3858 75.4852 84.9545 75.6132 84.3134 75.6132H82.0286C81.3524 75.6132 80.8862 75.4969 80.653 75.2526C80.4199 75.0082 80.2916 74.5894 80.2916 73.996V69.7378H73.3906V74.9501C73.3906 76.8232 73.9035 78.2892 74.9177 79.3246C75.9435 80.3601 77.6105 80.8837 79.9303 80.8837H86.4117C88.7314 80.8837 90.3984 80.3601 91.4242 79.3246C92.4501 78.2892 92.9513 76.8232 92.9513 74.9501V65.0724C92.9513 63.1992 92.4734 61.7449 91.5058 60.7327C90.5499 59.7088 88.9296 59.2086 86.6448 59.2086H86.6565Z" fill="black"/>
<path d="M95.3527 48.3652H101.962V80.8837H108.863V48.3652H115.52V43.0948H95.3527V48.3652Z" fill="black"/>
<path d="M132.143 73.996C132.143 74.5894 132.026 75.0199 131.781 75.2526C131.537 75.4852 131.082 75.6132 130.406 75.6132H127.223C126.582 75.6132 126.139 75.4969 125.906 75.2526C125.673 75.0082 125.545 74.5894 125.545 73.996V43.0948H118.644V74.9617C118.644 76.8348 119.157 78.3008 120.171 79.3363C121.197 80.3717 122.864 80.8953 125.183 80.8953H132.504C134.789 80.8953 136.444 80.3717 137.482 79.3363C138.519 78.3008 139.044 76.8348 139.044 74.9617V43.0948H132.143V73.996Z" fill="black"/>
<path d="M159.397 43.0948H144.989V80.8953H159.397C161.682 80.8953 163.337 80.3717 164.375 79.3363C165.412 78.3008 165.937 76.8348 165.937 74.9617V49.0284C165.937 47.1552 165.412 45.7009 164.375 44.6538C163.337 43.6183 161.67 43.0948 159.397 43.0948ZM158.978 74.2403C158.978 74.8802 158.873 75.3107 158.651 75.5318C158.43 75.7528 157.975 75.8575 157.299 75.8575H151.902V48.1209H157.299C157.975 48.1209 158.43 48.2372 158.651 48.4467C158.873 48.6677 158.978 49.0982 158.978 49.7381V74.2403Z" fill="black"/>
<path d="M178.713 43.0948H171.812V80.8953H178.713V43.0948Z" fill="black"/>
<path d="M203.473 44.6538C202.447 43.6183 200.78 43.0948 198.46 43.0948H191.14C188.855 43.0948 187.2 43.6183 186.162 44.6538C185.125 45.6893 184.6 47.1552 184.6 49.0284V74.9617C184.6 76.8348 185.125 78.3008 186.162 79.3363C187.2 80.3717 188.866 80.8953 191.14 80.8953H198.46C200.78 80.8953 202.447 80.3717 203.473 79.3363C204.499 78.3008 205 76.8348 205 74.9617V49.0284C205 47.1552 204.487 45.7009 203.473 44.6538ZM198.099 73.996C198.099 74.5894 197.994 75.0199 197.773 75.2526C197.551 75.4969 197.096 75.6132 196.42 75.6132H193.238C192.562 75.6132 192.096 75.4969 191.862 75.2526C191.629 75.0082 191.501 74.5894 191.501 73.996V49.9824C191.501 49.3425 191.618 48.912 191.862 48.691C192.107 48.4699 192.562 48.3652 193.238 48.3652H196.42C197.096 48.3652 197.551 48.4816 197.773 48.691C197.994 48.912 198.099 49.3425 198.099 49.9824V73.996Z" fill="black"/>
</svg>
